<mxfile host="Electron" modified="2024-01-17T13:51:47.200Z" agent="Mozilla/5.0 (Windows NT 10.0; Win64; x64) AppleWebKit/537.36 (KHTML, like Gecko) draw.io/22.0.2 Chrome/114.0.5735.289 Electron/25.8.4 Safari/537.36" etag="QqoNwShkQOO7RF_nsx1R" version="22.0.2" type="device">
  <diagram id="wFE0QG_FPsp0jaGvCLVb" name="Page-1">
    <mxGraphModel dx="778" dy="1168" grid="1" gridSize="10" guides="1" tooltips="1" connect="1" arrows="1" fold="1" page="1" pageScale="1" pageWidth="850" pageHeight="1100" math="0" shadow="0">
      <root>
        <mxCell id="0" />
        <mxCell id="1" parent="0" />
        <object label="Dag 1" placeholders="1" id="eDNeD65UE8EC1zX97zXI-11">
          <mxCell style="whiteSpace=wrap;html=1;strokeWidth=2;fontStyle=0;spacingTop=0;rounded=0;arcSize=9;points=[];fontFamily=Verdana;hachureGap=8;fillWeight=1;strokeColor=#999999;" parent="1" vertex="1">
            <mxGeometry x="60" y="197.5" width="60" height="40" as="geometry" />
          </mxCell>
        </object>
        <object label="Dag 2" placeholders="1" id="eDNeD65UE8EC1zX97zXI-12">
          <mxCell style="whiteSpace=wrap;html=1;strokeWidth=2;fontStyle=0;spacingTop=0;rounded=0;arcSize=9;points=[];fontFamily=Verdana;hachureGap=8;fillWeight=1;strokeColor=#999999;" parent="1" vertex="1">
            <mxGeometry x="60" y="237.5" width="60" height="40" as="geometry" />
          </mxCell>
        </object>
        <object label="Dag 3" placeholders="1" id="eDNeD65UE8EC1zX97zXI-13">
          <mxCell style="whiteSpace=wrap;html=1;strokeWidth=2;fontStyle=0;spacingTop=0;rounded=0;arcSize=9;points=[];fontFamily=Verdana;hachureGap=8;fillWeight=1;strokeColor=#999999;" parent="1" vertex="1">
            <mxGeometry x="60" y="277.5" width="60" height="40" as="geometry" />
          </mxCell>
        </object>
        <object label="Dag 4" placeholders="1" id="eDNeD65UE8EC1zX97zXI-14">
          <mxCell style="whiteSpace=wrap;html=1;strokeWidth=2;fontStyle=0;spacingTop=0;rounded=0;arcSize=9;points=[];fontFamily=Verdana;hachureGap=8;fillWeight=1;strokeColor=#999999;" parent="1" vertex="1">
            <mxGeometry x="60" y="317.5" width="60" height="40" as="geometry" />
          </mxCell>
        </object>
        <object label="Dag 5" placeholders="1" id="eDNeD65UE8EC1zX97zXI-15">
          <mxCell style="whiteSpace=wrap;html=1;strokeWidth=2;fontStyle=0;spacingTop=0;rounded=0;arcSize=9;points=[];fontFamily=Verdana;hachureGap=8;fillWeight=1;strokeColor=#999999;" parent="1" vertex="1">
            <mxGeometry x="60" y="357.5" width="60" height="40" as="geometry" />
          </mxCell>
        </object>
        <object label="Dag 6" placeholders="1" id="eDNeD65UE8EC1zX97zXI-16">
          <mxCell style="whiteSpace=wrap;html=1;strokeWidth=2;fontStyle=0;spacingTop=0;rounded=0;arcSize=9;points=[];fontFamily=Verdana;hachureGap=8;fillWeight=1;strokeColor=#999999;" parent="1" vertex="1">
            <mxGeometry x="60" y="397.5" width="60" height="40" as="geometry" />
          </mxCell>
        </object>
        <object label="Dag 7" placeholders="1" id="eDNeD65UE8EC1zX97zXI-17">
          <mxCell style="whiteSpace=wrap;html=1;strokeWidth=2;fontStyle=0;spacingTop=0;rounded=0;arcSize=9;points=[];fontFamily=Verdana;hachureGap=8;fillWeight=1;strokeColor=#999999;" parent="1" vertex="1">
            <mxGeometry x="60" y="437.5" width="60" height="40" as="geometry" />
          </mxCell>
        </object>
        <object label="Dag 8" placeholders="1" id="eDNeD65UE8EC1zX97zXI-18">
          <mxCell style="whiteSpace=wrap;html=1;strokeWidth=2;fontStyle=0;spacingTop=0;rounded=0;arcSize=9;points=[];fontFamily=Verdana;hachureGap=8;fillWeight=1;strokeColor=#999999;" parent="1" vertex="1">
            <mxGeometry x="60" y="477.5" width="60" height="40" as="geometry" />
          </mxCell>
        </object>
        <object label="Dag 9" placeholders="1" id="eDNeD65UE8EC1zX97zXI-19">
          <mxCell style="whiteSpace=wrap;html=1;strokeWidth=2;fontStyle=0;spacingTop=0;rounded=0;arcSize=9;points=[];fontFamily=Verdana;hachureGap=8;fillWeight=1;strokeColor=#999999;" parent="1" vertex="1">
            <mxGeometry x="60" y="517.5" width="60" height="40" as="geometry" />
          </mxCell>
        </object>
        <object label="Dag 10" placeholders="1" id="eDNeD65UE8EC1zX97zXI-20">
          <mxCell style="whiteSpace=wrap;html=1;strokeWidth=2;fontStyle=0;spacingTop=0;rounded=0;arcSize=9;points=[];fontFamily=Verdana;hachureGap=8;fillWeight=1;strokeColor=#999999;" parent="1" vertex="1">
            <mxGeometry x="60" y="557.5" width="60" height="40" as="geometry" />
          </mxCell>
        </object>
        <object label="Dag 11" placeholders="1" id="eDNeD65UE8EC1zX97zXI-21">
          <mxCell style="whiteSpace=wrap;html=1;strokeWidth=2;fontStyle=0;spacingTop=0;rounded=0;arcSize=9;points=[];fontFamily=Verdana;hachureGap=8;fillWeight=1;strokeColor=#999999;" parent="1" vertex="1">
            <mxGeometry x="60" y="597.5" width="60" height="40" as="geometry" />
          </mxCell>
        </object>
        <object label="Dag 12" placeholders="1" id="eDNeD65UE8EC1zX97zXI-22">
          <mxCell style="whiteSpace=wrap;html=1;strokeWidth=2;fontStyle=0;spacingTop=0;rounded=0;arcSize=9;points=[];fontFamily=Verdana;hachureGap=8;fillWeight=1;strokeColor=#999999;" parent="1" vertex="1">
            <mxGeometry x="60" y="637.5" width="60" height="40" as="geometry" />
          </mxCell>
        </object>
        <object label="Dag 13" placeholders="1" id="eDNeD65UE8EC1zX97zXI-23">
          <mxCell style="whiteSpace=wrap;html=1;strokeWidth=2;fontStyle=0;spacingTop=0;rounded=0;arcSize=9;points=[];fontFamily=Verdana;hachureGap=8;fillWeight=1;strokeColor=#999999;" parent="1" vertex="1">
            <mxGeometry x="60" y="677.5" width="60" height="40" as="geometry" />
          </mxCell>
        </object>
        <object label="Dag 14" placeholders="1" id="eDNeD65UE8EC1zX97zXI-24">
          <mxCell style="whiteSpace=wrap;html=1;strokeWidth=2;fontStyle=0;spacingTop=0;rounded=0;arcSize=9;points=[];fontFamily=Verdana;hachureGap=8;fillWeight=1;strokeColor=#999999;" parent="1" vertex="1">
            <mxGeometry x="60" y="717.5" width="60" height="40" as="geometry" />
          </mxCell>
        </object>
        <object label="Dag 15" placeholders="1" id="eDNeD65UE8EC1zX97zXI-25">
          <mxCell style="whiteSpace=wrap;html=1;strokeWidth=2;fontStyle=0;spacingTop=0;rounded=0;arcSize=9;points=[];fontFamily=Verdana;hachureGap=8;fillWeight=1;strokeColor=#999999;" parent="1" vertex="1">
            <mxGeometry x="60" y="757.5" width="60" height="40" as="geometry" />
          </mxCell>
        </object>
        <object label="Dag 16" placeholders="1" id="eDNeD65UE8EC1zX97zXI-26">
          <mxCell style="whiteSpace=wrap;html=1;strokeWidth=2;fontStyle=0;spacingTop=0;rounded=0;arcSize=9;points=[];fontFamily=Verdana;hachureGap=8;fillWeight=1;strokeColor=#999999;" parent="1" vertex="1">
            <mxGeometry x="60" y="797.5" width="60" height="40" as="geometry" />
          </mxCell>
        </object>
        <object label="Dag 17" placeholders="1" id="eDNeD65UE8EC1zX97zXI-27">
          <mxCell style="whiteSpace=wrap;html=1;strokeWidth=2;fontStyle=0;spacingTop=0;rounded=0;arcSize=9;points=[];fontFamily=Verdana;hachureGap=8;fillWeight=1;strokeColor=#999999;" parent="1" vertex="1">
            <mxGeometry x="60" y="837.5" width="60" height="40" as="geometry" />
          </mxCell>
        </object>
        <object label="Dag 18" placeholders="1" id="eDNeD65UE8EC1zX97zXI-28">
          <mxCell style="whiteSpace=wrap;html=1;strokeWidth=2;fontStyle=0;spacingTop=0;rounded=0;arcSize=9;points=[];fontFamily=Verdana;hachureGap=8;fillWeight=1;strokeColor=#999999;" parent="1" vertex="1">
            <mxGeometry x="60" y="877.5" width="60" height="40" as="geometry" />
          </mxCell>
        </object>
        <object label="Dag 19" placeholders="1" id="eDNeD65UE8EC1zX97zXI-29">
          <mxCell style="whiteSpace=wrap;html=1;strokeWidth=2;fontStyle=0;spacingTop=0;rounded=0;arcSize=9;points=[];fontFamily=Verdana;hachureGap=8;fillWeight=1;strokeColor=#999999;" parent="1" vertex="1">
            <mxGeometry x="60" y="917.5" width="60" height="40" as="geometry" />
          </mxCell>
        </object>
        <object label="Dag 20" placeholders="1" id="eDNeD65UE8EC1zX97zXI-30">
          <mxCell style="whiteSpace=wrap;html=1;strokeWidth=2;fontStyle=0;spacingTop=0;rounded=0;arcSize=9;points=[];fontFamily=Verdana;hachureGap=8;fillWeight=1;strokeColor=#999999;" parent="1" vertex="1">
            <mxGeometry x="60" y="957.5" width="60" height="40" as="geometry" />
          </mxCell>
        </object>
        <object label="wk&lt;br&gt;1" placeholders="1" id="eDNeD65UE8EC1zX97zXI-35">
          <mxCell style="whiteSpace=wrap;html=1;strokeWidth=2;fontStyle=0;spacingTop=0;rounded=0;arcSize=9;points=[];fontFamily=Verdana;hachureGap=8;fillWeight=1;strokeColor=#999999;" parent="1" vertex="1">
            <mxGeometry x="40" y="197.5" width="20" height="160" as="geometry" />
          </mxCell>
        </object>
        <object label="wk&lt;br&gt;2" placeholders="1" id="eDNeD65UE8EC1zX97zXI-36">
          <mxCell style="whiteSpace=wrap;html=1;strokeWidth=2;fontStyle=0;spacingTop=0;rounded=0;arcSize=9;points=[];fontFamily=Verdana;hachureGap=8;fillWeight=1;strokeColor=#999999;" parent="1" vertex="1">
            <mxGeometry x="40" y="357.5" width="20" height="160" as="geometry" />
          </mxCell>
        </object>
        <object label="Dag 21" placeholders="1" id="eDNeD65UE8EC1zX97zXI-37">
          <mxCell style="whiteSpace=wrap;html=1;strokeWidth=2;fontStyle=0;spacingTop=0;rounded=0;arcSize=9;points=[];fontFamily=Verdana;hachureGap=8;fillWeight=1;strokeColor=#999999;" parent="1" vertex="1">
            <mxGeometry x="60" y="997.5" width="60" height="40" as="geometry" />
          </mxCell>
        </object>
        <object label="Dag 22" placeholders="1" id="eDNeD65UE8EC1zX97zXI-38">
          <mxCell style="whiteSpace=wrap;html=1;strokeWidth=2;fontStyle=0;spacingTop=0;rounded=0;arcSize=9;points=[];fontFamily=Verdana;hachureGap=8;fillWeight=1;strokeColor=#999999;" parent="1" vertex="1">
            <mxGeometry x="60" y="1037.5" width="60" height="40" as="geometry" />
          </mxCell>
        </object>
        <object label="Dag 23" placeholders="1" id="eDNeD65UE8EC1zX97zXI-39">
          <mxCell style="whiteSpace=wrap;html=1;strokeWidth=2;fontStyle=0;spacingTop=0;rounded=0;arcSize=9;points=[];fontFamily=Verdana;hachureGap=8;fillWeight=1;strokeColor=#999999;" parent="1" vertex="1">
            <mxGeometry x="60" y="1077.5" width="60" height="40" as="geometry" />
          </mxCell>
        </object>
        <object label="Dag 24" placeholders="1" id="eDNeD65UE8EC1zX97zXI-40">
          <mxCell style="whiteSpace=wrap;html=1;strokeWidth=2;fontStyle=0;spacingTop=0;rounded=0;arcSize=9;points=[];fontFamily=Verdana;hachureGap=8;fillWeight=1;strokeColor=#999999;" parent="1" vertex="1">
            <mxGeometry x="60" y="1117.5" width="60" height="40" as="geometry" />
          </mxCell>
        </object>
        <object label="Dag 25" placeholders="1" id="eDNeD65UE8EC1zX97zXI-41">
          <mxCell style="whiteSpace=wrap;html=1;strokeWidth=2;fontStyle=0;spacingTop=0;rounded=0;arcSize=9;points=[];fontFamily=Verdana;hachureGap=8;fillWeight=1;strokeColor=#999999;" parent="1" vertex="1">
            <mxGeometry x="60" y="1157.5" width="60" height="40" as="geometry" />
          </mxCell>
        </object>
        <object label="Dag 26" placeholders="1" id="eDNeD65UE8EC1zX97zXI-42">
          <mxCell style="whiteSpace=wrap;html=1;strokeWidth=2;fontStyle=0;spacingTop=0;rounded=0;arcSize=9;points=[];fontFamily=Verdana;hachureGap=8;fillWeight=1;strokeColor=#999999;" parent="1" vertex="1">
            <mxGeometry x="60" y="1197.5" width="60" height="40" as="geometry" />
          </mxCell>
        </object>
        <object label="Dag 27" placeholders="1" id="eDNeD65UE8EC1zX97zXI-43">
          <mxCell style="whiteSpace=wrap;html=1;strokeWidth=2;fontStyle=0;spacingTop=0;rounded=0;arcSize=9;points=[];fontFamily=Verdana;hachureGap=8;fillWeight=1;strokeColor=#999999;" parent="1" vertex="1">
            <mxGeometry x="60" y="1237.5" width="60" height="40" as="geometry" />
          </mxCell>
        </object>
        <object label="Dag 28" placeholders="1" id="eDNeD65UE8EC1zX97zXI-44">
          <mxCell style="whiteSpace=wrap;html=1;strokeWidth=2;fontStyle=0;spacingTop=0;rounded=0;arcSize=9;points=[];fontFamily=Verdana;hachureGap=8;fillWeight=1;strokeColor=#999999;" parent="1" vertex="1">
            <mxGeometry x="60" y="1277.5" width="60" height="40" as="geometry" />
          </mxCell>
        </object>
        <object label="Dag 29" placeholders="1" id="eDNeD65UE8EC1zX97zXI-45">
          <mxCell style="whiteSpace=wrap;html=1;strokeWidth=2;fontStyle=0;spacingTop=0;rounded=0;arcSize=9;points=[];fontFamily=Verdana;hachureGap=8;fillWeight=1;strokeColor=#999999;" parent="1" vertex="1">
            <mxGeometry x="60" y="1317.5" width="60" height="40" as="geometry" />
          </mxCell>
        </object>
        <object label="Dag 30" placeholders="1" id="eDNeD65UE8EC1zX97zXI-46">
          <mxCell style="whiteSpace=wrap;html=1;strokeWidth=2;fontStyle=0;spacingTop=0;rounded=0;arcSize=9;points=[];fontFamily=Verdana;hachureGap=8;fillWeight=1;strokeColor=#999999;" parent="1" vertex="1">
            <mxGeometry x="60" y="1357.5" width="60" height="40" as="geometry" />
          </mxCell>
        </object>
        <object label="Dag 31" placeholders="1" id="eDNeD65UE8EC1zX97zXI-47">
          <mxCell style="whiteSpace=wrap;html=1;strokeWidth=2;fontStyle=0;spacingTop=0;rounded=0;arcSize=9;points=[];fontFamily=Verdana;hachureGap=8;fillWeight=1;strokeColor=#999999;" parent="1" vertex="1">
            <mxGeometry x="60" y="1397.5" width="60" height="40" as="geometry" />
          </mxCell>
        </object>
        <object label="Dag 32" placeholders="1" id="eDNeD65UE8EC1zX97zXI-48">
          <mxCell style="whiteSpace=wrap;html=1;strokeWidth=2;fontStyle=0;spacingTop=0;rounded=0;arcSize=9;points=[];fontFamily=Verdana;hachureGap=8;fillWeight=1;strokeColor=#999999;" parent="1" vertex="1">
            <mxGeometry x="60" y="1437.5" width="60" height="40" as="geometry" />
          </mxCell>
        </object>
        <object label="Dag 33" placeholders="1" id="eDNeD65UE8EC1zX97zXI-49">
          <mxCell style="whiteSpace=wrap;html=1;strokeWidth=2;fontStyle=0;spacingTop=0;rounded=0;arcSize=9;points=[];fontFamily=Verdana;hachureGap=8;fillWeight=1;strokeColor=#999999;" parent="1" vertex="1">
            <mxGeometry x="60" y="1477.5" width="60" height="40" as="geometry" />
          </mxCell>
        </object>
        <object label="Dag 34" placeholders="1" id="eDNeD65UE8EC1zX97zXI-50">
          <mxCell style="whiteSpace=wrap;html=1;strokeWidth=2;fontStyle=0;spacingTop=0;rounded=0;arcSize=9;points=[];fontFamily=Verdana;hachureGap=8;fillWeight=1;strokeColor=#999999;" parent="1" vertex="1">
            <mxGeometry x="60" y="1517.5" width="60" height="40" as="geometry" />
          </mxCell>
        </object>
        <object label="Dag 35" placeholders="1" id="eDNeD65UE8EC1zX97zXI-51">
          <mxCell style="whiteSpace=wrap;html=1;strokeWidth=2;fontStyle=0;spacingTop=0;rounded=0;arcSize=9;points=[];fontFamily=Verdana;hachureGap=8;fillWeight=1;strokeColor=#999999;" parent="1" vertex="1">
            <mxGeometry x="60" y="1557.5" width="60" height="40" as="geometry" />
          </mxCell>
        </object>
        <object label="Dag 36" placeholders="1" id="eDNeD65UE8EC1zX97zXI-52">
          <mxCell style="whiteSpace=wrap;html=1;strokeWidth=2;fontStyle=0;spacingTop=0;rounded=0;arcSize=9;points=[];fontFamily=Verdana;hachureGap=8;fillWeight=1;strokeColor=#999999;" parent="1" vertex="1">
            <mxGeometry x="60" y="1597.5" width="60" height="40" as="geometry" />
          </mxCell>
        </object>
        <object label="Dag 37" placeholders="1" id="eDNeD65UE8EC1zX97zXI-53">
          <mxCell style="whiteSpace=wrap;html=1;strokeWidth=2;fontStyle=0;spacingTop=0;rounded=0;arcSize=9;points=[];fontFamily=Verdana;hachureGap=8;fillWeight=1;strokeColor=#999999;" parent="1" vertex="1">
            <mxGeometry x="60" y="1637.5" width="60" height="40" as="geometry" />
          </mxCell>
        </object>
        <object label="Dag 38" placeholders="1" id="eDNeD65UE8EC1zX97zXI-54">
          <mxCell style="whiteSpace=wrap;html=1;strokeWidth=2;fontStyle=0;spacingTop=0;rounded=0;arcSize=9;points=[];fontFamily=Verdana;hachureGap=8;fillWeight=1;strokeColor=#999999;" parent="1" vertex="1">
            <mxGeometry x="60" y="1677.5" width="60" height="40" as="geometry" />
          </mxCell>
        </object>
        <object label="Dag 39" placeholders="1" id="eDNeD65UE8EC1zX97zXI-55">
          <mxCell style="whiteSpace=wrap;html=1;strokeWidth=2;fontStyle=0;spacingTop=0;rounded=0;arcSize=9;points=[];fontFamily=Verdana;hachureGap=8;fillWeight=1;strokeColor=#999999;" parent="1" vertex="1">
            <mxGeometry x="60" y="1717.5" width="60" height="40" as="geometry" />
          </mxCell>
        </object>
        <object label="Dag 40" placeholders="1" id="eDNeD65UE8EC1zX97zXI-56">
          <mxCell style="whiteSpace=wrap;html=1;strokeWidth=2;fontStyle=0;spacingTop=0;rounded=0;arcSize=9;points=[];fontFamily=Verdana;hachureGap=8;fillWeight=1;strokeColor=#999999;" parent="1" vertex="1">
            <mxGeometry x="60" y="1757.5" width="60" height="40" as="geometry" />
          </mxCell>
        </object>
        <object label="Dag 41" placeholders="1" id="eDNeD65UE8EC1zX97zXI-57">
          <mxCell style="whiteSpace=wrap;html=1;strokeWidth=2;fontStyle=0;spacingTop=0;rounded=0;arcSize=9;points=[];fontFamily=Verdana;hachureGap=8;fillWeight=1;strokeColor=#999999;" parent="1" vertex="1">
            <mxGeometry x="60" y="1797.5" width="60" height="40" as="geometry" />
          </mxCell>
        </object>
        <object label="Dag 42" placeholders="1" id="eDNeD65UE8EC1zX97zXI-58">
          <mxCell style="whiteSpace=wrap;html=1;strokeWidth=2;fontStyle=0;spacingTop=0;rounded=0;arcSize=9;points=[];fontFamily=Verdana;hachureGap=8;fillWeight=1;strokeColor=#999999;" parent="1" vertex="1">
            <mxGeometry x="60" y="1837.5" width="60" height="40" as="geometry" />
          </mxCell>
        </object>
        <object label="Dag 43" placeholders="1" id="eDNeD65UE8EC1zX97zXI-59">
          <mxCell style="whiteSpace=wrap;html=1;strokeWidth=2;fontStyle=0;spacingTop=0;rounded=0;arcSize=9;points=[];fontFamily=Verdana;hachureGap=8;fillWeight=1;strokeColor=#999999;" parent="1" vertex="1">
            <mxGeometry x="60" y="1877.5" width="60" height="40" as="geometry" />
          </mxCell>
        </object>
        <object label="Dag 44" placeholders="1" id="eDNeD65UE8EC1zX97zXI-60">
          <mxCell style="whiteSpace=wrap;html=1;strokeWidth=2;fontStyle=0;spacingTop=0;rounded=0;arcSize=9;points=[];fontFamily=Verdana;hachureGap=8;fillWeight=1;strokeColor=#999999;" parent="1" vertex="1">
            <mxGeometry x="60" y="1917.5" width="60" height="40" as="geometry" />
          </mxCell>
        </object>
        <object label="Dag 45" placeholders="1" id="eDNeD65UE8EC1zX97zXI-61">
          <mxCell style="whiteSpace=wrap;html=1;strokeWidth=2;fontStyle=0;spacingTop=0;rounded=0;arcSize=9;points=[];fontFamily=Verdana;hachureGap=8;fillWeight=1;strokeColor=#999999;" parent="1" vertex="1">
            <mxGeometry x="60" y="1957.5" width="60" height="40" as="geometry" />
          </mxCell>
        </object>
        <object label="Dag 46" placeholders="1" id="eDNeD65UE8EC1zX97zXI-62">
          <mxCell style="whiteSpace=wrap;html=1;strokeWidth=2;fontStyle=0;spacingTop=0;rounded=0;arcSize=9;points=[];fontFamily=Verdana;hachureGap=8;fillWeight=1;strokeColor=#999999;" parent="1" vertex="1">
            <mxGeometry x="60" y="1997.5" width="60" height="40" as="geometry" />
          </mxCell>
        </object>
        <object label="Dag 47" placeholders="1" id="eDNeD65UE8EC1zX97zXI-63">
          <mxCell style="whiteSpace=wrap;html=1;strokeWidth=2;fontStyle=0;spacingTop=0;rounded=0;arcSize=9;points=[];fontFamily=Verdana;hachureGap=8;fillWeight=1;strokeColor=#999999;" parent="1" vertex="1">
            <mxGeometry x="60" y="2037.5" width="60" height="40" as="geometry" />
          </mxCell>
        </object>
        <object label="Dag 48" placeholders="1" id="eDNeD65UE8EC1zX97zXI-64">
          <mxCell style="whiteSpace=wrap;html=1;strokeWidth=2;fontStyle=0;spacingTop=0;rounded=0;arcSize=9;points=[];fontFamily=Verdana;hachureGap=8;fillWeight=1;strokeColor=#999999;" parent="1" vertex="1">
            <mxGeometry x="60" y="2077.5" width="60" height="40" as="geometry" />
          </mxCell>
        </object>
        <object label="Dag 49" placeholders="1" id="eDNeD65UE8EC1zX97zXI-65">
          <mxCell style="whiteSpace=wrap;html=1;strokeWidth=2;fontStyle=0;spacingTop=0;rounded=0;arcSize=9;points=[];fontFamily=Verdana;hachureGap=8;fillWeight=1;strokeColor=#999999;" parent="1" vertex="1">
            <mxGeometry x="60" y="2117.5" width="60" height="40" as="geometry" />
          </mxCell>
        </object>
        <object label="Dag 50" placeholders="1" id="eDNeD65UE8EC1zX97zXI-66">
          <mxCell style="whiteSpace=wrap;html=1;strokeWidth=2;fontStyle=0;spacingTop=0;rounded=0;arcSize=9;points=[];fontFamily=Verdana;hachureGap=8;fillWeight=1;strokeColor=#999999;" parent="1" vertex="1">
            <mxGeometry x="60" y="2157.5" width="60" height="40" as="geometry" />
          </mxCell>
        </object>
        <object label="Dag 51" placeholders="1" id="eDNeD65UE8EC1zX97zXI-67">
          <mxCell style="whiteSpace=wrap;html=1;strokeWidth=2;fontStyle=0;spacingTop=0;rounded=0;arcSize=9;points=[];fontFamily=Verdana;hachureGap=8;fillWeight=1;strokeColor=#999999;" parent="1" vertex="1">
            <mxGeometry x="60" y="2197.5" width="60" height="40" as="geometry" />
          </mxCell>
        </object>
        <object label="Dag 52" placeholders="1" id="eDNeD65UE8EC1zX97zXI-68">
          <mxCell style="whiteSpace=wrap;html=1;strokeWidth=2;fontStyle=0;spacingTop=0;rounded=0;arcSize=9;points=[];fontFamily=Verdana;hachureGap=8;fillWeight=1;strokeColor=#999999;" parent="1" vertex="1">
            <mxGeometry x="60" y="2237.5" width="60" height="40" as="geometry" />
          </mxCell>
        </object>
        <object label="Dag 53" placeholders="1" id="eDNeD65UE8EC1zX97zXI-69">
          <mxCell style="whiteSpace=wrap;html=1;strokeWidth=2;fontStyle=0;spacingTop=0;rounded=0;arcSize=9;points=[];fontFamily=Verdana;hachureGap=8;fillWeight=1;strokeColor=#999999;" parent="1" vertex="1">
            <mxGeometry x="60" y="2277.5" width="60" height="40" as="geometry" />
          </mxCell>
        </object>
        <object label="Dag 54" placeholders="1" id="eDNeD65UE8EC1zX97zXI-70">
          <mxCell style="whiteSpace=wrap;html=1;strokeWidth=2;fontStyle=0;spacingTop=0;rounded=0;arcSize=9;points=[];fontFamily=Verdana;hachureGap=8;fillWeight=1;strokeColor=#999999;" parent="1" vertex="1">
            <mxGeometry x="60" y="2317.5" width="60" height="40" as="geometry" />
          </mxCell>
        </object>
        <object label="Dag 55" placeholders="1" id="eDNeD65UE8EC1zX97zXI-71">
          <mxCell style="whiteSpace=wrap;html=1;strokeWidth=2;fontStyle=0;spacingTop=0;rounded=0;arcSize=9;points=[];fontFamily=Verdana;hachureGap=8;fillWeight=1;strokeColor=#999999;" parent="1" vertex="1">
            <mxGeometry x="60" y="2357.5" width="60" height="40" as="geometry" />
          </mxCell>
        </object>
        <object label="Dag 56" placeholders="1" id="eDNeD65UE8EC1zX97zXI-72">
          <mxCell style="whiteSpace=wrap;html=1;strokeWidth=2;fontStyle=0;spacingTop=0;rounded=0;arcSize=9;points=[];fontFamily=Verdana;hachureGap=8;fillWeight=1;strokeColor=#999999;" parent="1" vertex="1">
            <mxGeometry x="60" y="2397.5" width="60" height="40" as="geometry" />
          </mxCell>
        </object>
        <object label="Dag 57" placeholders="1" id="eDNeD65UE8EC1zX97zXI-73">
          <mxCell style="whiteSpace=wrap;html=1;strokeWidth=2;fontStyle=0;spacingTop=0;rounded=0;arcSize=9;points=[];fontFamily=Verdana;hachureGap=8;fillWeight=1;strokeColor=#999999;" parent="1" vertex="1">
            <mxGeometry x="60" y="2437.5" width="60" height="40" as="geometry" />
          </mxCell>
        </object>
        <object label="Dag 58" placeholders="1" id="eDNeD65UE8EC1zX97zXI-74">
          <mxCell style="whiteSpace=wrap;html=1;strokeWidth=2;fontStyle=0;spacingTop=0;rounded=0;arcSize=9;points=[];fontFamily=Verdana;hachureGap=8;fillWeight=1;strokeColor=#999999;" parent="1" vertex="1">
            <mxGeometry x="60" y="2477.5" width="60" height="40" as="geometry" />
          </mxCell>
        </object>
        <object label="Dag 59" placeholders="1" id="eDNeD65UE8EC1zX97zXI-75">
          <mxCell style="whiteSpace=wrap;html=1;strokeWidth=2;fontStyle=0;spacingTop=0;rounded=0;arcSize=9;points=[];fontFamily=Verdana;hachureGap=8;fillWeight=1;strokeColor=#999999;" parent="1" vertex="1">
            <mxGeometry x="60" y="2517.5" width="60" height="40" as="geometry" />
          </mxCell>
        </object>
        <object label="Dag 60" placeholders="1" id="eDNeD65UE8EC1zX97zXI-76">
          <mxCell style="whiteSpace=wrap;html=1;strokeWidth=2;fontStyle=0;spacingTop=0;rounded=0;arcSize=9;points=[];fontFamily=Verdana;hachureGap=8;fillWeight=1;strokeColor=#999999;" parent="1" vertex="1">
            <mxGeometry x="60" y="2557.5" width="60" height="40" as="geometry" />
          </mxCell>
        </object>
        <object label="Dag 61" placeholders="1" id="eDNeD65UE8EC1zX97zXI-77">
          <mxCell style="whiteSpace=wrap;html=1;strokeWidth=2;fontStyle=0;spacingTop=0;rounded=0;arcSize=9;points=[];fontFamily=Verdana;hachureGap=8;fillWeight=1;strokeColor=#999999;" parent="1" vertex="1">
            <mxGeometry x="60" y="2597.5" width="60" height="40" as="geometry" />
          </mxCell>
        </object>
        <object label="Dag 62" placeholders="1" id="eDNeD65UE8EC1zX97zXI-78">
          <mxCell style="whiteSpace=wrap;html=1;strokeWidth=2;fontStyle=0;spacingTop=0;rounded=0;arcSize=9;points=[];fontFamily=Verdana;hachureGap=8;fillWeight=1;strokeColor=#999999;" parent="1" vertex="1">
            <mxGeometry x="60" y="2637.5" width="60" height="40" as="geometry" />
          </mxCell>
        </object>
        <object label="Dag 63" placeholders="1" id="eDNeD65UE8EC1zX97zXI-79">
          <mxCell style="whiteSpace=wrap;html=1;strokeWidth=2;fontStyle=0;spacingTop=0;rounded=0;arcSize=9;points=[];fontFamily=Verdana;hachureGap=8;fillWeight=1;strokeColor=#999999;" parent="1" vertex="1">
            <mxGeometry x="60" y="2677.5" width="60" height="40" as="geometry" />
          </mxCell>
        </object>
        <object label="Dag 64" placeholders="1" id="eDNeD65UE8EC1zX97zXI-80">
          <mxCell style="whiteSpace=wrap;html=1;strokeWidth=2;fontStyle=0;spacingTop=0;rounded=0;arcSize=9;points=[];fontFamily=Verdana;hachureGap=8;fillWeight=1;strokeColor=#999999;" parent="1" vertex="1">
            <mxGeometry x="60" y="2717.5" width="60" height="40" as="geometry" />
          </mxCell>
        </object>
        <object label="Dag 65" placeholders="1" id="eDNeD65UE8EC1zX97zXI-81">
          <mxCell style="whiteSpace=wrap;html=1;strokeWidth=2;fontStyle=0;spacingTop=0;rounded=0;arcSize=9;points=[];fontFamily=Verdana;hachureGap=8;fillWeight=1;strokeColor=#999999;" parent="1" vertex="1">
            <mxGeometry x="60" y="2757.5" width="60" height="40" as="geometry" />
          </mxCell>
        </object>
        <object label="Dag 66" placeholders="1" id="eDNeD65UE8EC1zX97zXI-82">
          <mxCell style="whiteSpace=wrap;html=1;strokeWidth=2;fontStyle=0;spacingTop=0;rounded=0;arcSize=9;points=[];fontFamily=Verdana;hachureGap=8;fillWeight=1;strokeColor=#999999;" parent="1" vertex="1">
            <mxGeometry x="60" y="2797.5" width="60" height="40" as="geometry" />
          </mxCell>
        </object>
        <object label="Dag 67" placeholders="1" id="eDNeD65UE8EC1zX97zXI-83">
          <mxCell style="whiteSpace=wrap;html=1;strokeWidth=2;fontStyle=0;spacingTop=0;rounded=0;arcSize=9;points=[];fontFamily=Verdana;hachureGap=8;fillWeight=1;strokeColor=#999999;" parent="1" vertex="1">
            <mxGeometry x="60" y="2837.5" width="60" height="40" as="geometry" />
          </mxCell>
        </object>
        <object label="Dag 68" placeholders="1" id="eDNeD65UE8EC1zX97zXI-84">
          <mxCell style="whiteSpace=wrap;html=1;strokeWidth=2;fontStyle=0;spacingTop=0;rounded=0;arcSize=9;points=[];fontFamily=Verdana;hachureGap=8;fillWeight=1;strokeColor=#999999;" parent="1" vertex="1">
            <mxGeometry x="60" y="2877.5" width="60" height="40" as="geometry" />
          </mxCell>
        </object>
        <object label="Dag 69" placeholders="1" id="eDNeD65UE8EC1zX97zXI-85">
          <mxCell style="whiteSpace=wrap;html=1;strokeWidth=2;fontStyle=0;spacingTop=0;rounded=0;arcSize=9;points=[];fontFamily=Verdana;hachureGap=8;fillWeight=1;strokeColor=#999999;" parent="1" vertex="1">
            <mxGeometry x="60" y="2917.5" width="60" height="40" as="geometry" />
          </mxCell>
        </object>
        <object label="Dag 70" placeholders="1" id="eDNeD65UE8EC1zX97zXI-86">
          <mxCell style="whiteSpace=wrap;html=1;strokeWidth=2;fontStyle=0;spacingTop=0;rounded=0;arcSize=9;points=[];fontFamily=Verdana;hachureGap=8;fillWeight=1;strokeColor=#999999;" parent="1" vertex="1">
            <mxGeometry x="60" y="2957.5" width="60" height="40" as="geometry" />
          </mxCell>
        </object>
        <object label="Dag 71" placeholders="1" id="eDNeD65UE8EC1zX97zXI-87">
          <mxCell style="whiteSpace=wrap;html=1;strokeWidth=2;fontStyle=0;spacingTop=0;rounded=0;arcSize=9;points=[];fontFamily=Verdana;hachureGap=8;fillWeight=1;strokeColor=#999999;" parent="1" vertex="1">
            <mxGeometry x="60" y="2997.5" width="60" height="40" as="geometry" />
          </mxCell>
        </object>
        <object label="Dag 72" placeholders="1" id="eDNeD65UE8EC1zX97zXI-88">
          <mxCell style="whiteSpace=wrap;html=1;strokeWidth=2;fontStyle=0;spacingTop=0;rounded=0;arcSize=9;points=[];fontFamily=Verdana;hachureGap=8;fillWeight=1;strokeColor=#999999;" parent="1" vertex="1">
            <mxGeometry x="60" y="3037.5" width="60" height="40" as="geometry" />
          </mxCell>
        </object>
        <object label="Dag 73" placeholders="1" id="eDNeD65UE8EC1zX97zXI-89">
          <mxCell style="whiteSpace=wrap;html=1;strokeWidth=2;fontStyle=0;spacingTop=0;rounded=0;arcSize=9;points=[];fontFamily=Verdana;hachureGap=8;fillWeight=1;strokeColor=#999999;" parent="1" vertex="1">
            <mxGeometry x="60" y="3077.5" width="60" height="40" as="geometry" />
          </mxCell>
        </object>
        <object label="Dag 74" placeholders="1" id="eDNeD65UE8EC1zX97zXI-90">
          <mxCell style="whiteSpace=wrap;html=1;strokeWidth=2;fontStyle=0;spacingTop=0;rounded=0;arcSize=9;points=[];fontFamily=Verdana;hachureGap=8;fillWeight=1;strokeColor=#999999;" parent="1" vertex="1">
            <mxGeometry x="60" y="3117.5" width="60" height="40" as="geometry" />
          </mxCell>
        </object>
        <object label="Dag 75" placeholders="1" id="eDNeD65UE8EC1zX97zXI-91">
          <mxCell style="whiteSpace=wrap;html=1;strokeWidth=2;fontStyle=0;spacingTop=0;rounded=0;arcSize=9;points=[];fontFamily=Verdana;hachureGap=8;fillWeight=1;strokeColor=#999999;" parent="1" vertex="1">
            <mxGeometry x="60" y="3157.5" width="60" height="40" as="geometry" />
          </mxCell>
        </object>
        <object label="Dag 76" placeholders="1" id="eDNeD65UE8EC1zX97zXI-92">
          <mxCell style="whiteSpace=wrap;html=1;strokeWidth=2;fontStyle=0;spacingTop=0;rounded=0;arcSize=9;points=[];fontFamily=Verdana;hachureGap=8;fillWeight=1;strokeColor=#999999;" parent="1" vertex="1">
            <mxGeometry x="60" y="3197.5" width="60" height="40" as="geometry" />
          </mxCell>
        </object>
        <object label="Dag 77" placeholders="1" id="eDNeD65UE8EC1zX97zXI-93">
          <mxCell style="whiteSpace=wrap;html=1;strokeWidth=2;fontStyle=0;spacingTop=0;rounded=0;arcSize=9;points=[];fontFamily=Verdana;hachureGap=8;fillWeight=1;strokeColor=#999999;" parent="1" vertex="1">
            <mxGeometry x="60" y="3237.5" width="60" height="40" as="geometry" />
          </mxCell>
        </object>
        <object label="Dag 78" placeholders="1" id="eDNeD65UE8EC1zX97zXI-94">
          <mxCell style="whiteSpace=wrap;html=1;strokeWidth=2;fontStyle=0;spacingTop=0;rounded=0;arcSize=9;points=[];fontFamily=Verdana;hachureGap=8;fillWeight=1;strokeColor=#999999;" parent="1" vertex="1">
            <mxGeometry x="60" y="3277.5" width="60" height="40" as="geometry" />
          </mxCell>
        </object>
        <object label="Dag 79" placeholders="1" id="eDNeD65UE8EC1zX97zXI-95">
          <mxCell style="whiteSpace=wrap;html=1;strokeWidth=2;fontStyle=0;spacingTop=0;rounded=0;arcSize=9;points=[];fontFamily=Verdana;hachureGap=8;fillWeight=1;strokeColor=#999999;" parent="1" vertex="1">
            <mxGeometry x="60" y="3317.5" width="60" height="40" as="geometry" />
          </mxCell>
        </object>
        <object label="Dag 80" placeholders="1" id="eDNeD65UE8EC1zX97zXI-96">
          <mxCell style="whiteSpace=wrap;html=1;strokeWidth=2;fontStyle=0;spacingTop=0;rounded=0;arcSize=9;points=[];fontFamily=Verdana;hachureGap=8;fillWeight=1;strokeColor=#999999;" parent="1" vertex="1">
            <mxGeometry x="60" y="3357.5" width="60" height="40" as="geometry" />
          </mxCell>
        </object>
        <object label="Dag 81" placeholders="1" id="eDNeD65UE8EC1zX97zXI-97">
          <mxCell style="whiteSpace=wrap;html=1;strokeWidth=2;fontStyle=0;spacingTop=0;rounded=0;arcSize=9;points=[];fontFamily=Verdana;hachureGap=8;fillWeight=1;strokeColor=#999999;" parent="1" vertex="1">
            <mxGeometry x="60" y="3397.5" width="60" height="40" as="geometry" />
          </mxCell>
        </object>
        <object label="Dag 82" placeholders="1" id="eDNeD65UE8EC1zX97zXI-98">
          <mxCell style="whiteSpace=wrap;html=1;strokeWidth=2;fontStyle=0;spacingTop=0;rounded=0;arcSize=9;points=[];fontFamily=Verdana;hachureGap=8;fillWeight=1;strokeColor=#999999;" parent="1" vertex="1">
            <mxGeometry x="60" y="3437.5" width="60" height="40" as="geometry" />
          </mxCell>
        </object>
        <object label="Dag 83" placeholders="1" id="eDNeD65UE8EC1zX97zXI-99">
          <mxCell style="whiteSpace=wrap;html=1;strokeWidth=2;fontStyle=0;spacingTop=0;rounded=0;arcSize=9;points=[];fontFamily=Verdana;hachureGap=8;fillWeight=1;strokeColor=#999999;" parent="1" vertex="1">
            <mxGeometry x="60" y="3477.5" width="60" height="40" as="geometry" />
          </mxCell>
        </object>
        <object label="Dag 84" placeholders="1" id="eDNeD65UE8EC1zX97zXI-100">
          <mxCell style="whiteSpace=wrap;html=1;strokeWidth=2;fontStyle=0;spacingTop=0;rounded=0;arcSize=9;points=[];fontFamily=Verdana;hachureGap=8;fillWeight=1;strokeColor=#999999;" parent="1" vertex="1">
            <mxGeometry x="60" y="3517.5" width="60" height="40" as="geometry" />
          </mxCell>
        </object>
        <object label="Dag 85" placeholders="1" id="eDNeD65UE8EC1zX97zXI-101">
          <mxCell style="whiteSpace=wrap;html=1;strokeWidth=2;fontStyle=0;spacingTop=0;rounded=0;arcSize=9;points=[];fontFamily=Verdana;hachureGap=8;fillWeight=1;strokeColor=#999999;" parent="1" vertex="1">
            <mxGeometry x="60" y="3557.5" width="60" height="40" as="geometry" />
          </mxCell>
        </object>
        <object label="Dag 86" placeholders="1" id="eDNeD65UE8EC1zX97zXI-102">
          <mxCell style="whiteSpace=wrap;html=1;strokeWidth=2;fontStyle=0;spacingTop=0;rounded=0;arcSize=9;points=[];fontFamily=Verdana;hachureGap=8;fillWeight=1;strokeColor=#999999;" parent="1" vertex="1">
            <mxGeometry x="60" y="3597.5" width="60" height="40" as="geometry" />
          </mxCell>
        </object>
        <object label="Dag 87" placeholders="1" id="eDNeD65UE8EC1zX97zXI-103">
          <mxCell style="whiteSpace=wrap;html=1;strokeWidth=2;fontStyle=0;spacingTop=0;rounded=0;arcSize=9;points=[];fontFamily=Verdana;hachureGap=8;fillWeight=1;strokeColor=#999999;" parent="1" vertex="1">
            <mxGeometry x="60" y="3637.5" width="60" height="40" as="geometry" />
          </mxCell>
        </object>
        <object label="Dag 88" placeholders="1" id="eDNeD65UE8EC1zX97zXI-104">
          <mxCell style="whiteSpace=wrap;html=1;strokeWidth=2;fontStyle=0;spacingTop=0;rounded=0;arcSize=9;points=[];fontFamily=Verdana;hachureGap=8;fillWeight=1;strokeColor=#999999;" parent="1" vertex="1">
            <mxGeometry x="60" y="3677.5" width="60" height="40" as="geometry" />
          </mxCell>
        </object>
        <object label="wk&lt;br&gt;3" placeholders="1" id="eDNeD65UE8EC1zX97zXI-107">
          <mxCell style="whiteSpace=wrap;html=1;strokeWidth=2;fontStyle=0;spacingTop=0;rounded=0;arcSize=9;points=[];fontFamily=Verdana;hachureGap=8;fillWeight=1;strokeColor=#999999;" parent="1" vertex="1">
            <mxGeometry x="40" y="517.5" width="20" height="160" as="geometry" />
          </mxCell>
        </object>
        <object label="wk&lt;br&gt;4" placeholders="1" id="eDNeD65UE8EC1zX97zXI-108">
          <mxCell style="whiteSpace=wrap;html=1;strokeWidth=2;fontStyle=0;spacingTop=0;rounded=0;arcSize=9;points=[];fontFamily=Verdana;hachureGap=8;fillWeight=1;strokeColor=#999999;" parent="1" vertex="1">
            <mxGeometry x="40" y="677.5" width="20" height="160" as="geometry" />
          </mxCell>
        </object>
        <object label="wk&lt;br&gt;5" placeholders="1" id="eDNeD65UE8EC1zX97zXI-109">
          <mxCell style="whiteSpace=wrap;html=1;strokeWidth=2;fontStyle=0;spacingTop=0;rounded=0;arcSize=9;points=[];fontFamily=Verdana;hachureGap=8;fillWeight=1;strokeColor=#999999;" parent="1" vertex="1">
            <mxGeometry x="40" y="837.5" width="20" height="160" as="geometry" />
          </mxCell>
        </object>
        <object label="wk&lt;br&gt;6" placeholders="1" id="eDNeD65UE8EC1zX97zXI-121">
          <mxCell style="whiteSpace=wrap;html=1;strokeWidth=2;fontStyle=0;spacingTop=0;rounded=0;arcSize=9;points=[];fontFamily=Verdana;hachureGap=8;fillWeight=1;strokeColor=#999999;" parent="1" vertex="1">
            <mxGeometry x="40" y="997.5" width="20" height="160" as="geometry" />
          </mxCell>
        </object>
        <object label="wk&lt;br&gt;7" placeholders="1" id="eDNeD65UE8EC1zX97zXI-122">
          <mxCell style="whiteSpace=wrap;html=1;strokeWidth=2;fontStyle=0;spacingTop=0;rounded=0;arcSize=9;points=[];fontFamily=Verdana;hachureGap=8;fillWeight=1;strokeColor=#999999;" parent="1" vertex="1">
            <mxGeometry x="40" y="1157.5" width="20" height="160" as="geometry" />
          </mxCell>
        </object>
        <object label="wk&lt;br&gt;8" placeholders="1" id="eDNeD65UE8EC1zX97zXI-123">
          <mxCell style="whiteSpace=wrap;html=1;strokeWidth=2;fontStyle=0;spacingTop=0;rounded=0;arcSize=9;points=[];fontFamily=Verdana;hachureGap=8;fillWeight=1;strokeColor=#999999;" parent="1" vertex="1">
            <mxGeometry x="40" y="1317.5" width="20" height="160" as="geometry" />
          </mxCell>
        </object>
        <object label="wk&lt;br&gt;9" placeholders="1" id="eDNeD65UE8EC1zX97zXI-124">
          <mxCell style="whiteSpace=wrap;html=1;strokeWidth=2;fontStyle=0;spacingTop=0;rounded=0;arcSize=9;points=[];fontFamily=Verdana;hachureGap=8;fillWeight=1;strokeColor=#999999;" parent="1" vertex="1">
            <mxGeometry x="40" y="1477.5" width="20" height="160" as="geometry" />
          </mxCell>
        </object>
        <object label="wk&lt;br&gt;10" placeholders="1" id="eDNeD65UE8EC1zX97zXI-125">
          <mxCell style="whiteSpace=wrap;html=1;strokeWidth=2;fontStyle=0;spacingTop=0;rounded=0;arcSize=9;points=[];fontFamily=Verdana;hachureGap=8;fillWeight=1;strokeColor=#999999;" parent="1" vertex="1">
            <mxGeometry x="40" y="1637.5" width="20" height="160" as="geometry" />
          </mxCell>
        </object>
        <object label="wk&lt;br&gt;11" placeholders="1" id="eDNeD65UE8EC1zX97zXI-148">
          <mxCell style="whiteSpace=wrap;html=1;strokeWidth=2;fontStyle=0;spacingTop=0;rounded=0;arcSize=9;points=[];fontFamily=Verdana;hachureGap=8;fillWeight=1;strokeColor=#999999;" parent="1" vertex="1">
            <mxGeometry x="40" y="1797.5" width="20" height="160" as="geometry" />
          </mxCell>
        </object>
        <object label="wk&lt;br&gt;12" placeholders="1" id="eDNeD65UE8EC1zX97zXI-149">
          <mxCell style="whiteSpace=wrap;html=1;strokeWidth=2;fontStyle=0;spacingTop=0;rounded=0;arcSize=9;points=[];fontFamily=Verdana;hachureGap=8;fillWeight=1;strokeColor=#999999;" parent="1" vertex="1">
            <mxGeometry x="40" y="1957.5" width="20" height="160" as="geometry" />
          </mxCell>
        </object>
        <object label="wk&lt;br&gt;13" placeholders="1" id="eDNeD65UE8EC1zX97zXI-180">
          <mxCell style="whiteSpace=wrap;html=1;strokeWidth=2;fontStyle=0;spacingTop=0;rounded=0;arcSize=9;points=[];fontFamily=Verdana;hachureGap=8;fillWeight=1;strokeColor=#999999;" parent="1" vertex="1">
            <mxGeometry x="40" y="2117.5" width="20" height="160" as="geometry" />
          </mxCell>
        </object>
        <object label="wk&lt;br&gt;14" placeholders="1" id="eDNeD65UE8EC1zX97zXI-181">
          <mxCell style="whiteSpace=wrap;html=1;strokeWidth=2;fontStyle=0;spacingTop=0;rounded=0;arcSize=9;points=[];fontFamily=Verdana;hachureGap=8;fillWeight=1;strokeColor=#999999;" parent="1" vertex="1">
            <mxGeometry x="40" y="2277.5" width="20" height="160" as="geometry" />
          </mxCell>
        </object>
        <object label="wk&lt;br&gt;15" placeholders="1" id="eDNeD65UE8EC1zX97zXI-182">
          <mxCell style="whiteSpace=wrap;html=1;strokeWidth=2;fontStyle=0;spacingTop=0;rounded=0;arcSize=9;points=[];fontFamily=Verdana;hachureGap=8;fillWeight=1;strokeColor=#999999;" parent="1" vertex="1">
            <mxGeometry x="40" y="2437.5" width="20" height="160" as="geometry" />
          </mxCell>
        </object>
        <object label="wk&lt;br&gt;16" placeholders="1" id="eDNeD65UE8EC1zX97zXI-183">
          <mxCell style="whiteSpace=wrap;html=1;strokeWidth=2;fontStyle=0;spacingTop=0;rounded=0;arcSize=9;points=[];fontFamily=Verdana;hachureGap=8;fillWeight=1;strokeColor=#999999;" parent="1" vertex="1">
            <mxGeometry x="40" y="2597.5" width="20" height="160" as="geometry" />
          </mxCell>
        </object>
        <object label="wk&lt;br&gt;17" placeholders="1" id="eDNeD65UE8EC1zX97zXI-184">
          <mxCell style="whiteSpace=wrap;html=1;strokeWidth=2;fontStyle=0;spacingTop=0;rounded=0;arcSize=9;points=[];fontFamily=Verdana;hachureGap=8;fillWeight=1;strokeColor=#999999;" parent="1" vertex="1">
            <mxGeometry x="40" y="2757.5" width="20" height="160" as="geometry" />
          </mxCell>
        </object>
        <object label="wk&lt;br&gt;18" placeholders="1" id="eDNeD65UE8EC1zX97zXI-185">
          <mxCell style="whiteSpace=wrap;html=1;strokeWidth=2;fontStyle=0;spacingTop=0;rounded=0;arcSize=9;points=[];fontFamily=Verdana;hachureGap=8;fillWeight=1;strokeColor=#999999;" parent="1" vertex="1">
            <mxGeometry x="40" y="2917.5" width="20" height="160" as="geometry" />
          </mxCell>
        </object>
        <object label="wk&lt;br&gt;19" placeholders="1" id="eDNeD65UE8EC1zX97zXI-186">
          <mxCell style="whiteSpace=wrap;html=1;strokeWidth=2;fontStyle=0;spacingTop=0;rounded=0;arcSize=9;points=[];fontFamily=Verdana;hachureGap=8;fillWeight=1;strokeColor=#999999;" parent="1" vertex="1">
            <mxGeometry x="40" y="3077.5" width="20" height="160" as="geometry" />
          </mxCell>
        </object>
        <object label="wk&lt;br&gt;20" placeholders="1" id="eDNeD65UE8EC1zX97zXI-187">
          <mxCell style="whiteSpace=wrap;html=1;strokeWidth=2;fontStyle=0;spacingTop=0;rounded=0;arcSize=9;points=[];fontFamily=Verdana;hachureGap=8;fillWeight=1;strokeColor=#999999;" parent="1" vertex="1">
            <mxGeometry x="40" y="3237.5" width="20" height="160" as="geometry" />
          </mxCell>
        </object>
        <mxCell id="-Kgn9S8xCz1WekDffiLX-7" value="&amp;nbsp; &amp;nbsp; &amp;nbsp;Bla&lt;br&gt;Bla" style="swimlane;fontStyle=1;align=left;verticalAlign=top;childLayout=stackLayout;horizontal=1;startSize=40;horizontalStack=0;resizeParent=1;resizeParentMax=0;resizeLast=0;collapsible=1;marginBottom=0;whiteSpace=wrap;html=1;fillColor=#f5f5f5;fontColor=#333333;strokeColor=#666666;rounded=0;strokeWidth=2;" parent="1" vertex="1" collapsed="1">
          <mxGeometry x="120" y="197.5" width="280" height="40" as="geometry">
            <mxRectangle x="110" y="1050" width="280" height="74" as="alternateBounds" />
          </mxGeometry>
        </mxCell>
        <mxCell id="-Kgn9S8xCz1WekDffiLX-8" value="Bla" style="text;strokeColor=#808080;fillColor=default;align=left;verticalAlign=top;spacingLeft=4;spacingRight=4;overflow=hidden;rotatable=0;points=[[0,0.5],[1,0.5]];portConstraint=eastwest;whiteSpace=wrap;html=1;labelBackgroundColor=default;strokeWidth=2;" parent="-Kgn9S8xCz1WekDffiLX-7" vertex="1">
          <mxGeometry y="40" width="280" height="26" as="geometry" />
        </mxCell>
        <mxCell id="-Kgn9S8xCz1WekDffiLX-9" value="" style="line;strokeWidth=1;fillColor=none;align=left;verticalAlign=middle;spacingTop=-1;spacingLeft=3;spacingRight=3;rotatable=0;labelPosition=right;points=[];portConstraint=eastwest;strokeColor=inherit;" parent="-Kgn9S8xCz1WekDffiLX-7" vertex="1">
          <mxGeometry y="66" width="280" height="8" as="geometry" />
        </mxCell>
        <mxCell id="-Kgn9S8xCz1WekDffiLX-23" value="Templates om te kopieren&lt;br&gt;(CTRL+D):&lt;br&gt;" style="text;html=1;strokeColor=none;fillColor=none;align=center;verticalAlign=middle;whiteSpace=wrap;rounded=0;" parent="1" vertex="1">
          <mxGeometry x="40" y="42.5" width="80" height="30" as="geometry" />
        </mxCell>
        <mxCell id="-Kgn9S8xCz1WekDffiLX-24" value="&amp;nbsp; &amp;nbsp; &amp;nbsp;Bla&lt;br&gt;Bla" style="swimlane;fontStyle=1;align=left;verticalAlign=top;childLayout=stackLayout;horizontal=1;startSize=40;horizontalStack=0;resizeParent=1;resizeParentMax=0;resizeLast=0;collapsible=1;marginBottom=0;whiteSpace=wrap;html=1;fillColor=#f5f5f5;fontColor=#333333;strokeColor=#666666;rounded=0;strokeWidth=2;" parent="1" vertex="1" collapsed="1">
          <mxGeometry x="130" y="40" width="280" height="40" as="geometry">
            <mxRectangle x="110" y="1050" width="280" height="74" as="alternateBounds" />
          </mxGeometry>
        </mxCell>
        <mxCell id="-Kgn9S8xCz1WekDffiLX-25" value="Bla" style="text;strokeColor=#808080;fillColor=default;align=left;verticalAlign=top;spacingLeft=4;spacingRight=4;overflow=hidden;rotatable=0;points=[[0,0.5],[1,0.5]];portConstraint=eastwest;whiteSpace=wrap;html=1;labelBackgroundColor=default;strokeWidth=2;" parent="-Kgn9S8xCz1WekDffiLX-24" vertex="1">
          <mxGeometry y="40" width="280" height="26" as="geometry" />
        </mxCell>
        <mxCell id="-Kgn9S8xCz1WekDffiLX-26" value="" style="line;strokeWidth=1;fillColor=none;align=left;verticalAlign=middle;spacingTop=-1;spacingLeft=3;spacingRight=3;rotatable=0;labelPosition=right;points=[];portConstraint=eastwest;strokeColor=inherit;" parent="-Kgn9S8xCz1WekDffiLX-24" vertex="1">
          <mxGeometry y="66" width="280" height="8" as="geometry" />
        </mxCell>
        <mxCell id="-Kgn9S8xCz1WekDffiLX-27" value="Tips: * Drag en drop tot ruwweg de volgorde in een kolom klopt. * Selecteer kolom-&amp;gt;Gebruik Align-&amp;gt;Left en Distribute-&amp;gt;Spacing&amp;nbsp;&lt;br&gt;&amp;nbsp; &amp;nbsp; &amp;nbsp; &amp;nbsp; &amp;nbsp;* Als je iets hebt opengeklapt, verplaats het dan snel naar front met CTRL+SHIFT+F * TODO: schrijf sorting macro waardoor dat niet hoeft." style="text;html=1;strokeColor=none;fillColor=none;align=left;verticalAlign=top;whiteSpace=wrap;rounded=0;" parent="1" vertex="1">
          <mxGeometry x="40" y="130" width="710" height="45" as="geometry" />
        </mxCell>
        <mxCell id="-Kgn9S8xCz1WekDffiLX-28" value="&amp;nbsp; &amp;nbsp; &amp;nbsp;Bla" style="swimlane;fontStyle=1;align=left;verticalAlign=top;childLayout=stackLayout;horizontal=1;startSize=40;horizontalStack=0;resizeParent=1;resizeParentMax=0;resizeLast=0;collapsible=1;marginBottom=0;whiteSpace=wrap;html=1;fillColor=#f5f5f5;fontColor=#333333;strokeColor=#666666;rounded=0;strokeWidth=2;spacingBottom=0;spacingTop=-3;" parent="1" vertex="1" collapsed="1">
          <mxGeometry x="420" y="82.5" width="280" height="20" as="geometry">
            <mxRectangle x="400" y="1050" width="280" height="74" as="alternateBounds" />
          </mxGeometry>
        </mxCell>
        <mxCell id="-Kgn9S8xCz1WekDffiLX-29" value="Bla" style="text;strokeColor=#808080;fillColor=default;align=left;verticalAlign=top;spacingLeft=4;spacingRight=4;overflow=hidden;rotatable=0;points=[[0,0.5],[1,0.5]];portConstraint=eastwest;whiteSpace=wrap;html=1;labelBackgroundColor=default;strokeWidth=2;" parent="-Kgn9S8xCz1WekDffiLX-28" vertex="1">
          <mxGeometry y="40" width="280" height="26" as="geometry" />
        </mxCell>
        <mxCell id="-Kgn9S8xCz1WekDffiLX-30" value="" style="line;strokeWidth=1;fillColor=none;align=left;verticalAlign=middle;spacingTop=-1;spacingLeft=3;spacingRight=3;rotatable=0;labelPosition=right;points=[];portConstraint=eastwest;strokeColor=inherit;" parent="-Kgn9S8xCz1WekDffiLX-28" vertex="1">
          <mxGeometry y="66" width="280" height="8" as="geometry" />
        </mxCell>
        <mxCell id="-Kgn9S8xCz1WekDffiLX-31" value="&amp;nbsp; &amp;nbsp; &amp;nbsp;Bla" style="swimlane;fontStyle=1;align=left;verticalAlign=top;childLayout=stackLayout;horizontal=1;startSize=10;horizontalStack=0;resizeParent=1;resizeParentMax=0;resizeLast=0;collapsible=1;marginBottom=0;whiteSpace=wrap;html=1;fillColor=#f5f5f5;fontColor=#333333;strokeColor=#666666;rounded=0;strokeWidth=2;spacingBottom=0;spacingTop=-8;" parent="1" vertex="1" collapsed="1">
          <mxGeometry x="420" y="112.5" width="280" height="10" as="geometry">
            <mxRectangle x="130" y="260" width="280" height="44" as="alternateBounds" />
          </mxGeometry>
        </mxCell>
        <mxCell id="-Kgn9S8xCz1WekDffiLX-32" value="Bla" style="text;strokeColor=#808080;fillColor=default;align=left;verticalAlign=top;spacingLeft=4;spacingRight=4;overflow=hidden;rotatable=0;points=[[0,0.5],[1,0.5]];portConstraint=eastwest;whiteSpace=wrap;html=1;labelBackgroundColor=default;strokeWidth=2;" parent="-Kgn9S8xCz1WekDffiLX-31" vertex="1">
          <mxGeometry y="10" width="280" height="26" as="geometry" />
        </mxCell>
        <mxCell id="-Kgn9S8xCz1WekDffiLX-33" value="" style="line;strokeWidth=1;fillColor=none;align=left;verticalAlign=middle;spacingTop=-1;spacingLeft=3;spacingRight=3;rotatable=0;labelPosition=right;points=[];portConstraint=eastwest;strokeColor=inherit;" parent="-Kgn9S8xCz1WekDffiLX-31" vertex="1">
          <mxGeometry y="36" width="280" height="8" as="geometry" />
        </mxCell>
        <mxCell id="-Kgn9S8xCz1WekDffiLX-34" value="&amp;nbsp; &amp;nbsp; &amp;nbsp;Bla" style="swimlane;fontStyle=1;align=left;verticalAlign=top;childLayout=stackLayout;horizontal=1;startSize=40;horizontalStack=0;resizeParent=1;resizeParentMax=0;resizeLast=0;collapsible=1;marginBottom=0;whiteSpace=wrap;html=1;fillColor=#f5f5f5;fontColor=#333333;strokeColor=#666666;rounded=0;strokeWidth=2;spacingBottom=0;spacingTop=-3;" parent="1" vertex="1" collapsed="1">
          <mxGeometry x="420" y="40" width="280" height="30" as="geometry">
            <mxRectangle x="400" y="1050" width="280" height="74" as="alternateBounds" />
          </mxGeometry>
        </mxCell>
        <mxCell id="-Kgn9S8xCz1WekDffiLX-35" value="Bla" style="text;strokeColor=#808080;fillColor=default;align=left;verticalAlign=top;spacingLeft=4;spacingRight=4;overflow=hidden;rotatable=0;points=[[0,0.5],[1,0.5]];portConstraint=eastwest;whiteSpace=wrap;html=1;labelBackgroundColor=default;strokeWidth=2;" parent="-Kgn9S8xCz1WekDffiLX-34" vertex="1">
          <mxGeometry y="40" width="280" height="26" as="geometry" />
        </mxCell>
        <mxCell id="-Kgn9S8xCz1WekDffiLX-36" value="" style="line;strokeWidth=1;fillColor=none;align=left;verticalAlign=middle;spacingTop=-1;spacingLeft=3;spacingRight=3;rotatable=0;labelPosition=right;points=[];portConstraint=eastwest;strokeColor=inherit;" parent="-Kgn9S8xCz1WekDffiLX-34" vertex="1">
          <mxGeometry y="66" width="280" height="8" as="geometry" />
        </mxCell>
        <object label="wk&lt;br&gt;21" placeholders="1" id="eIWO136iKFWfSzowi0yl-1">
          <mxCell style="whiteSpace=wrap;html=1;strokeWidth=2;fontStyle=0;spacingTop=0;rounded=0;arcSize=9;points=[];fontFamily=Verdana;hachureGap=8;fillWeight=1;strokeColor=#999999;" vertex="1" parent="1">
            <mxGeometry x="40" y="3397.5" width="20" height="160" as="geometry" />
          </mxCell>
        </object>
        <object label="wk&lt;br&gt;22" placeholders="1" id="eIWO136iKFWfSzowi0yl-2">
          <mxCell style="whiteSpace=wrap;html=1;strokeWidth=2;fontStyle=0;spacingTop=0;rounded=0;arcSize=9;points=[];fontFamily=Verdana;hachureGap=8;fillWeight=1;strokeColor=#999999;" vertex="1" parent="1">
            <mxGeometry x="40" y="3557.5" width="20" height="160" as="geometry" />
          </mxCell>
        </object>
      </root>
    </mxGraphModel>
  </diagram>
</mxfile>
